# xmcd CD database file
#
# Track frame offsets:
#	150
#	11549
#	27268
#	45667
#	56145
#	69413
#	81918
#	97598
#	115406
#	130878
#	151442
#	169687
#	183375
#	204851
#
# Disc length: 2970 seconds
#
# Revision: 0
# Processed by: cddbd v1.5.2PL0 Copyright (c) Steve Scherf et al.
# Submitted via: CDex 1.70beta2
#
DISCID=af0b980e
DTITLE=Coleümes - Vision II
DYEAR=2007
DGENRE=Jazz
TTITLE0=Loco
TTITLE1=Agua dulce de Borbon
TTITLE2=Rumba nortena
TTITLE3=Proclamacion nativa
TTITLE4=Amigo mi amigo
TTITLE5=Chimborazo
TTITLE6=El Cigarillo
TTITLE7=Arroz con Coco
TTITLE8=El Choron
TTITLE9=Bombero para Alemania
TTITLE10=Veng compay Loro
TTITLE11=Que sera de mi
TTITLE12=Caramba
TTITLE13=Chocolate
EXTD=YEAR: 2007
EXTT0=
EXTT1=
EXTT2=
EXTT3=
EXTT4=
EXTT5=
EXTT6=
EXTT7=
EXTT8=
EXTT9=
EXTT10=
EXTT11=
EXTT12=
EXTT13=
PLAYORDER=
